<svg xmlns="http://www.w3.org/2000/svg" width="60.078" height="60.078" viewBox="0 0 60.078 60.078"><ellipse cx="30.039" cy="30.039" rx="30.039" ry="30.039" transform="translate(0 0)" fill="#007ab9"/><g transform="translate(14.494 12.835)"><path d="M60.561,43.59V55.974H53.38V44.42c0-2.9-1.037-4.882-3.636-4.882a3.927,3.927,0,0,0-3.683,2.625,4.914,4.914,0,0,0-.238,1.75V55.974H38.643s.1-19.569,0-21.595h7.181v3.06c-.014.024-.035.048-.048.071h.048v-.071A7.129,7.129,0,0,1,52.3,33.871c4.724,0,8.266,3.086,8.266,9.718ZM31.131,23.969a3.742,3.742,0,1,0-.094,7.463h.047a3.743,3.743,0,1,0,.048-7.463ZM27.495,55.974h7.178v-21.6H27.495Z" transform="translate(-27.068 -23.969)" fill="#f1f2f2"/></g></svg>